<svg xmlns="http://www.w3.org/2000/svg" viewBox="0 0 512 512" fill="#54a0ff"><path d="M354.338 34.205h-61.71c-3.354-9.93-12.752-17.102-23.8-17.102h-17.547C243.359 6.451 230.813 0 217.521 0s-25.839 6.451-33.76 17.102h-17.547c-11.048 0-20.446 7.172-23.8 17.102H80.701c-18.566 0-33.67 15.105-33.67 33.67v359.148c0 18.566 15.105 33.67 33.67 33.67h171.023a8.017 8.017 0 000-16.034H80.701c-9.725 0-17.637-7.912-17.637-17.637V67.875c0-9.725 7.912-17.637 17.637-17.637h60.394v26.188a8.017 8.017 0 008.017 8.017H285.93a8.017 8.017 0 008.017-8.017V50.238h60.391c9.725 0 17.637 7.912 17.637 17.637v230.881a8.017 8.017 0 0016.034 0V67.875c-.001-18.566-15.105-33.67-33.671-33.67zm-76.424 34.204H157.129V42.252l.001-.031-.001-.015c.009-5.004 4.08-9.071 9.085-9.071h21.846a8.016 8.016 0 006.929-3.985c4.781-8.213 13.204-13.117 22.532-13.117s17.751 4.904 22.532 13.117a8.017 8.017 0 006.929 3.985h21.846c4.999 0 9.067 4.059 9.085 9.055l-.001.031c0 .021.003.041.003.062v26.126z"/><path d="M251.722 410.455H97.269V84.443h17.64a8.017 8.017 0 000-16.034H89.253a8.017 8.017 0 00-8.017 8.017v342.046a8.017 8.017 0 008.017 8.017h162.47a8.017 8.017 0 10-.001-16.034zm94.065-342.046h-25.653a8.017 8.017 0 000 16.034h17.637v214.311a8.017 8.017 0 0016.034 0V76.426a8.02 8.02 0 00-8.018-8.017zm25.653 256.535c-51.572 0-93.528 41.956-93.528 93.528S319.869 512 371.44 512s93.528-41.956 93.528-93.528-41.956-93.528-93.528-93.528zm0 171.023c-42.731 0-77.495-34.764-77.495-77.495s34.764-77.495 77.495-77.495 77.495 34.764 77.495 77.495-34.763 77.495-77.495 77.495zM217.607 34.205h-.086c-4.427 0-7.974 3.589-7.974 8.017 0 4.427 3.631 8.017 8.059 8.017a8.017 8.017 0 008.017-8.017 8.015 8.015 0 00-8.016-8.017z"/><path d="M419.865 387.15a8.016 8.016 0 00-11.337 0l-54.19 54.19-28.536-28.536a8.016 8.016 0 00-11.337 0 8.016 8.016 0 000 11.337l34.205 34.205c1.565 1.565 3.617 2.348 5.668 2.348s4.103-.782 5.668-2.348l59.858-59.858a8.018 8.018 0 00.001-11.338zM182.781 177.309v-32.338c11.295 1.934 18.171 7.688 18.171 11.889a8.017 8.017 0 0016.034 0c0-14.171-14.492-25.621-34.205-28.092v-1.036a8.017 8.017 0 00-16.034 0v1.036c-19.713 2.47-34.205 13.92-34.205 28.092 0 20.074 18.829 27.788 34.205 32.461v32.338c-11.295-1.934-18.171-7.688-18.171-11.889a8.017 8.017 0 00-16.034 0c0 14.171 14.492 25.621 34.205 28.092v1.036a8.017 8.017 0 0016.034 0v-1.036c19.713-2.47 34.205-13.92 34.205-28.092-.001-20.073-18.829-27.788-34.205-32.461zm-16.034-4.898c-13.524-4.713-18.171-8.963-18.171-15.551 0-2.535 2.236-5.335 6.134-7.68 3.294-1.982 7.473-3.415 12.037-4.198v27.429zm28.071 45.039c-3.294 1.982-7.473 3.415-12.037 4.198v-27.429c13.524 4.713 18.171 8.963 18.171 15.551 0 2.536-2.236 5.335-6.134 7.68zm99.662-80.632h-42.756a8.017 8.017 0 000 16.034h42.756a8.017 8.017 0 000-16.034zm-17.102 34.205h-25.653a8.017 8.017 0 000 16.034h25.653a8.017 8.017 0 000-16.034zm17.102 34.205h-42.756a8.017 8.017 0 000 16.034h42.756a8.017 8.017 0 000-16.034zm-136.818 76.96H140.56a8.017 8.017 0 000 16.034h17.102a8.017 8.017 0 000-16.034zm0 68.409H140.56a8.017 8.017 0 000 16.034h17.102a8.017 8.017 0 000-16.034zm0-34.204H140.56a8.017 8.017 0 000 16.034h17.102a8.017 8.017 0 000-16.034zm136.818-34.205H191.866a8.017 8.017 0 000 16.034H294.48a8.017 8.017 0 000-16.034zm-25.653 68.409h-76.96a8.017 8.017 0 000 16.034h76.96a8.017 8.017 0 000-16.034zm25.653-34.204H191.866a8.017 8.017 0 000 16.034H294.48a8.017 8.017 0 000-16.034z"/></svg>