<svg xmlns="http://www.w3.org/2000/svg" viewBox="0 0 512 512" fill="#54a0ff"><path d="M503.673 243.579c-5.323-6.344-12.584-10.467-20.908-12.008l-3.91-53.066a8.015 8.015 0 007.818-6.622l1.508-8.551c1.616-9.166-.638-18.214-6.185-24.823-5.54-6.602-13.651-10.239-22.84-10.239h-58.854l2.865-16.245c.813-4.614-.365-9.221-3.231-12.637-2.838-3.382-7.105-5.322-11.707-5.322H98.524c-8.567 0-16.453 6.665-17.954 15.176L54.939 254.609a8.016 8.016 0 0015.789 2.783L96.36 112.025c.169-.957 1.401-1.927 2.163-1.927l288.702.001-25.481 144.51a8.015 8.015 0 006.503 9.286c4.355.767 8.518-2.143 9.286-6.503l1.848-10.479h95.888c6.626.001 12.351 2.476 16.122 6.969 2.595 3.093 4.109 6.943 4.473 11.202h-26.629a8.016 8.016 0 00-7.895 6.625l-3.015 17.102c-1.215 6.89.501 13.717 4.707 18.73 4.148 4.945 10.445 7.78 17.274 7.78h7.548l-6.22 35.273h-21.165c-1.393-7.055-4.442-13.544-9.063-19.049-8.199-9.773-20.265-15.154-33.972-15.154-21.979 0-43.184 14.38-53.111 34.204H361.1l10.403-58.999A8.016 8.016 0 00365 282.31a8.015 8.015 0 00-9.286 6.503l-10.894 61.783H196.418c-1.393-7.055-4.442-13.543-9.063-19.049-8.2-9.773-20.265-15.154-33.973-15.154-21.979 0-43.184 14.38-53.111 34.204l-45.978-.001 3.204-18.17h36.029a8.017 8.017 0 000-16.034H8.017a8.017 8.017 0 000 16.034h33.201l-2.865 16.245c-.813 4.614.365 9.221 3.231 12.637 2.838 3.382 7.105 5.322 11.707 5.322h41.774c-2.173 13.599 1.093 26.41 9.268 36.151 8.2 9.773 20.265 15.154 33.973 15.154 27.284 0 53.387-22.151 58.188-49.38.113-.645.202-1.286.292-1.926h162.331c-2.174 13.598 1.092 26.409 9.268 36.151 8.2 9.773 20.265 15.154 33.973 15.154 27.284 0 53.387-22.151 58.188-49.38.113-.645.202-1.286.292-1.926h27.525a8.016 8.016 0 007.895-6.625l15.078-85.51c2.046-11.607-.675-22.586-7.663-30.914zM382.21 230.883l9.235-52.375h71.336l3.859 52.375h-84.43zm90.181-70.334l-.34 1.926h-77.78l3.204-18.171h61.681c4.367 0 8.117 1.602 10.557 4.511 2.53 3.014 3.482 7.18 2.678 11.734zM180.705 365.773c-3.512 19.923-22.533 36.13-42.399 36.13-8.886 0-16.59-3.348-21.691-9.426-5.248-6.255-7.248-14.749-5.631-23.919 3.513-19.923 22.533-36.13 42.399-36.13 8.886 0 16.59 3.348 21.691 9.427 5.248 6.253 7.248 14.748 5.631 23.918zm264.051 0c-3.513 19.923-22.533 36.13-42.399 36.13-8.886 0-16.59-3.348-21.691-9.427-5.248-6.255-7.248-14.749-5.631-23.919 3.512-19.923 22.533-36.13 42.399-36.13 8.885 0 16.59 3.348 21.691 9.427 5.248 6.254 7.248 14.749 5.631 23.919zm45.925-66.481h-10.375v-.001c-2.139 0-3.865-.71-4.992-2.052-1.169-1.394-1.596-3.397-1.2-5.64l1.848-10.477h17.923l-3.204 18.17z"/><path d="M159.06 355.919c-2.838-3.382-7.105-5.322-11.708-5.322-8.567 0-16.453 6.665-17.954 15.176-.813 4.614.365 9.221 3.231 12.637 2.838 3.382 7.105 5.322 11.707 5.322 8.567 0 16.453-6.666 17.954-15.175.814-4.615-.363-9.221-3.23-12.638zm264.051 0c-2.839-3.382-7.106-5.322-11.707-5.322-8.567 0-16.453 6.665-17.953 15.175-.813 4.615.363 9.221 3.23 12.638 2.838 3.382 7.105 5.322 11.707 5.322 8.567 0 16.453-6.666 17.954-15.175.814-4.615-.364-9.221-3.231-12.638zm-99.737-39.526H221.791a8.017 8.017 0 000 16.034h101.583a8.017 8.017 0 000-16.034zm-144.338-34.204H31.15a8.017 8.017 0 000 16.034h147.886a8.017 8.017 0 000-16.034zm153.091-32.253l-29.68-25.653a8.018 8.018 0 00-10.485 12.131l13.388 11.572H102.077a8.017 8.017 0 000 16.034h198.189l-16.535 10.954a8.015 8.015 0 00-2.256 11.11 8.007 8.007 0 006.69 3.59c1.52 0 3.058-.432 4.42-1.335l38.727-25.653a8.01 8.01 0 003.573-6.172 8.014 8.014 0 00-2.758-6.578z"/></svg>