<svg xmlns="http://www.w3.org/2000/svg" viewBox="0 0 512.001 512.001" fill="#54a0ff"><path d="M436.003 421.761c-1.462-10.632-7.621-19.724-16.9-24.943l-88.568-49.819c-13.557-7.626-30.708-5.27-41.708 5.729l-31.101 31.101c-6.371 6.371-16.571 7.165-23.729 1.847-21.488-15.966-42.489-34.167-62.421-54.099-19.931-19.931-38.132-40.933-54.099-62.421-5.318-7.157-4.524-17.358 1.847-23.729l31.101-31.101c11-11 13.356-28.151 5.729-41.708L106.336 84.05c-5.219-9.279-14.31-15.438-24.943-16.899-11.141-1.53-22.176 2.239-30.278 10.344l-32.803 32.803C-4.862 133.472-6.08 174.96 14.881 227.121c20.051 49.898 58.206 104.49 107.434 153.718 49.229 49.23 103.82 87.384 153.718 107.434 24.708 9.929 47.018 14.881 66.124 14.881 21.228 0 38.501-6.115 50.698-18.312l32.803-32.803c8.104-8.103 11.874-19.139 10.345-30.278zm-22.074 18.55l-5.733 5.731-75.506-41.185a8.29 8.29 0 00-11.252 3.31 8.292 8.292 0 003.31 11.252l71.223 38.849-14.846 14.846c-17.915 17.914-53.966 17.829-98.909-.23-47.869-19.237-100.491-56.09-148.174-103.773-47.68-47.683-84.535-100.306-103.771-148.175-18.06-44.945-18.144-80.995-.23-98.909l14.843-14.846 7.94 14.556a8.292 8.292 0 0011.251 3.31 8.294 8.294 0 003.31-11.253L57.112 94.956l5.731-5.731c3.768-3.766 8.66-5.815 13.723-5.815.853 0 1.712.059 2.57.176 5.445.748 10.091 3.881 12.743 8.598l49.818 88.568c3.994 7.102 2.761 16.085-3.001 21.846l-14.799 14.8-38.837-71.202a8.293 8.293 0 00-11.252-3.31 8.293 8.293 0 00-3.31 11.252l41.174 75.484-4.076 4.076c-12.144 12.144-13.619 31.641-3.432 45.351 16.448 22.135 35.182 43.755 55.683 64.257 20.502 20.502 42.122 39.237 64.257 55.683 13.709 10.188 33.205 8.712 45.351-3.432l4.076-4.076 18.834 10.273a8.292 8.292 0 0011.251-3.31 8.292 8.292 0 00-3.31-11.252l-14.551-7.938 14.799-14.799c5.761-5.761 14.745-6.995 21.848-3.001l88.568 49.818c4.716 2.653 7.85 7.298 8.598 12.743.818 5.955-1.237 11.894-5.639 16.296zm-16.381-219.148h-9.399v-71.325a8.294 8.294 0 00-16.588 0v71.325h-43.293l15.45-69.526a8.294 8.294 0 00-6.298-9.895 8.292 8.292 0 00-9.895 6.297l-17.693 79.619a8.29 8.29 0 008.096 10.093h53.632v27.092a8.294 8.294 0 0016.588 0V237.75h9.399a8.294 8.294 0 00.001-16.587z"/><path d="M291.39 256.549h-61.039c3.608-9.501 13.818-15.543 28.544-23.579 18.173-9.917 40.789-22.259 40.789-50.274 0-22.691-19.595-41.152-43.68-41.152s-43.68 18.46-43.68 41.152a8.294 8.294 0 0016.588 0c0-13.545 12.154-24.565 27.092-24.565 14.938 0 27.092 11.019 27.092 24.565-.001 16.948-12.145 24.798-32.148 35.713-18.104 9.88-38.625 21.079-38.625 46.433a8.294 8.294 0 008.294 8.294h70.772a8.294 8.294 0 00.001-16.587z"/><path d="M466.694 354.022l-16.152 3.23C489.792 319.132 512 266.995 512 211.763 512 99.875 420.972 8.846 309.083 8.846c-65.942 0-128.006 32.23-166.02 86.216a8.295 8.295 0 0013.562 9.551c34.913-49.58 91.906-79.18 152.459-79.18 102.742 0 186.33 83.587 186.33 186.33 0 51.459-21.008 99.983-58.043 135.117l3.698-18.486a8.294 8.294 0 00-6.507-9.759 8.293 8.293 0 00-9.759 6.507l-8.846 44.233a8.293 8.293 0 009.759 9.759l44.233-8.847a8.295 8.295 0 006.507-9.759 8.301 8.301 0 00-9.762-6.506z"/><path d="M309.083 44.232a8.294 8.294 0 00-8.294 8.294v17.693a8.294 8.294 0 0016.588 0V52.526a8.295 8.295 0 00-8.294-8.294zM468.32 203.47h-17.693a8.294 8.294 0 000 16.588h17.693a8.294 8.294 0 000-16.588zm-277.671-69.661l-15.322-8.846a8.294 8.294 0 00-8.294 14.364l15.322 8.846a8.291 8.291 0 0011.329-3.036 8.293 8.293 0 00-3.035-11.328zM451.133 284.2l-15.322-8.847a8.293 8.293 0 10-8.294 14.364l15.322 8.846a8.291 8.291 0 0011.329-3.036 8.29 8.29 0 00-3.035-11.327zM392.849 66.678a8.293 8.293 0 00-11.329 3.035l-8.846 15.322a8.294 8.294 0 0014.364 8.293l8.847-15.322a8.293 8.293 0 00-3.036-11.328zM242.457 327.162a8.293 8.293 0 00-11.329 3.035l-8.846 15.322a8.294 8.294 0 0014.364 8.293l8.847-15.322a8.292 8.292 0 00-3.036-11.328zm211.712-199.164a8.293 8.293 0 00-11.329-3.035l-15.322 8.847a8.292 8.292 0 00-3.035 11.329 8.29 8.29 0 0011.329 3.036l15.322-8.846a8.297 8.297 0 003.035-11.331zM193.684 278.389a8.291 8.291 0 00-11.329-3.035l-15.322 8.847a8.292 8.292 0 00-3.035 11.329 8.29 8.29 0 0011.329 3.036l15.322-8.846a8.297 8.297 0 003.035-11.331zm51.809-193.353l-8.846-15.322a8.29 8.29 0 00-11.329-3.035 8.292 8.292 0 00-3.035 11.329l8.847 15.322a8.292 8.292 0 0011.329 3.036 8.296 8.296 0 003.034-11.33zm150.391 260.483l-8.846-15.322a8.292 8.292 0 00-11.329-3.035 8.292 8.292 0 00-3.035 11.329l8.846 15.322a8.29 8.29 0 0011.329 3.036 8.295 8.295 0 003.035-11.33z"/></svg>