<svg xmlns="http://www.w3.org/2000/svg" viewBox="0 0 512 512" fill="#54a0ff"><path d="M408.274 56.527h-.087c-4.503 0-8.109 3.65-8.109 8.153s3.694 8.153 8.196 8.153a8.153 8.153 0 000-16.306zM290.912 389.623l-77.599-32.332a9.214 9.214 0 01-5.686-8.53v-16.46l14.509-8.06a42.904 42.904 0 0021.908-33.647l.032-.351h7.576c14.086 0 25.546-11.46 25.546-25.546v-15.703c2.284-5.523 8.696-23.2 8.696-47.587 0-33.695-13.199-65.487-37.165-89.521a128.218 128.218 0 00-30.794-22.799c-.392-27.598-28.021-49.953-61.942-49.953S94.443 61.489 94.05 89.087a128.165 128.165 0 00-30.794 22.799c-23.966 24.034-37.165 55.825-37.165 89.521 0 24.387 6.412 42.063 8.696 47.587v15.703c0 14.086 11.46 25.546 25.546 25.546h7.576l.031.351a42.903 42.903 0 0021.909 33.647l14.509 8.06v16.46a9.218 9.218 0 01-5.686 8.53l-77.599 32.332A34.152 34.152 0 000 421.231v52.178c0 14.086 11.46 25.546 25.546 25.546h260.892c14.086 0 25.546-11.46 25.546-25.546v-52.178a34.155 34.155 0 00-21.072-31.608zm-30.02-124.927c0 5.095-4.145 9.24-9.24 9.24h-6.093l3.261-35.873h2.832c5.095 0 9.24 4.145 9.24 9.24v17.393zM155.992 55.44c21.355 0 39.325 11.054 44.29 25.933-13.966-4.898-28.895-7.453-44.29-7.453s-30.323 2.555-44.29 7.453c4.964-14.879 22.934-25.933 44.29-25.933zM60.331 273.936c-5.095 0-9.24-4.145-9.24-9.24v-17.393c0-5.095 4.145-9.24 9.24-9.24h2.832l3.261 35.873h-6.093zm37.437 36.051a26.611 26.611 0 01-13.59-20.87l-6.207-68.273c10.664-.067 29.363-.975 51.23-5.506 44.72-9.265 81.204-29.479 105.507-58.455a8.15 8.15 0 00-1.008-11.485 8.152 8.152 0 00-11.486 1.008c-53.04 63.24-151.327 58.059-152.671 57.977v.009a8.2 8.2 0 00-1.253.009 8.152 8.152 0 00-7.381 8.857l.772 8.501h-1.35a25.42 25.42 0 00-15.243 5.058 121.064 121.064 0 01-2.694-25.41c0-29.348 11.509-57.05 32.406-78.007 21.333-21.393 50.167-33.175 81.191-33.175s59.857 11.781 81.191 33.175c20.897 20.955 32.406 48.659 32.406 78.007 0 9.901-1.215 18.547-2.694 25.411a25.412 25.412 0 00-15.243-5.059h-1.35l.773-8.502a8.15 8.15 0 00-2.355-6.503l-17.393-17.393a8.152 8.152 0 00-11.529 0 8.152 8.152 0 000 11.529l14.693 14.693-5.805 63.855c-6.658 5.889-27.775 20.588-72.694 20.588-4.503 0-8.153 3.65-8.153 8.153s3.65 8.153 8.153 8.153c31.214 0 52.574-6.536 66.428-13.435a26.6 26.6 0 01-8.203 7.091l-45.291 25.162c-8.099 4.499-17.769 4.499-25.867 0l-45.29-25.163zm7.175 62.354a25.477 25.477 0 0015.72-23.58v-7.402l14.476 8.043c6.529 3.626 13.69 5.441 20.853 5.441s14.324-1.813 20.853-5.441l14.476-8.043v7.402a25.474 25.474 0 0015.72 23.58l8.552 3.563c-15.294 17.756-30.075 26.578-40.086 30.892-11.073 4.771-18.74 5.163-19.516 5.192-.776-.028-8.443-.421-19.516-5.192-10.011-4.313-24.791-13.136-40.086-30.892l8.554-3.563zM52.178 482.65H25.546c-5.095 0-9.24-4.145-9.24-9.24v-52.178c0-2.248.417-4.422 1.189-6.436l27.952 22.363a17.844 17.844 0 016.731 14.006v31.485zm191.321-31.487v31.486H68.484v-31.486c0-10.46-4.684-20.205-12.851-26.739l-25.921-20.737 50.923-21.218c26.865 33.228 54.02 42.37 67.203 44.879v27.582c0 4.503 3.65 8.153 8.153 8.153s8.153-3.65 8.153-8.153v-27.582c13.184-2.509 40.338-11.651 67.203-44.879l50.923 21.218-25.921 20.737c-8.166 6.534-12.85 16.28-12.85 26.739zm52.178 22.247c0 5.095-4.145 9.24-9.24 9.24h-26.633v-31.486a17.852 17.852 0 016.731-14.007l27.952-22.362a17.96 17.96 0 011.189 6.436v52.179z"/><path d="M145.944 243.765c-3.896-8.085-13.292-13.311-23.939-13.311s-20.043 5.225-23.939 13.311a8.154 8.154 0 0014.691 7.077c.953-1.978 4.519-4.082 9.249-4.082s8.295 2.103 9.249 4.082a8.152 8.152 0 1014.689-7.077zm67.973 0c-3.895-8.085-13.291-13.311-23.939-13.311s-20.043 5.225-23.939 13.311a8.154 8.154 0 0014.691 7.077c.953-1.978 4.519-4.082 9.249-4.082s8.295 2.103 9.249 4.082a8.152 8.152 0 1014.689-7.077zm194.27-230.72c-57.243 0-103.813 46.57-103.813 103.813 0 30.035 12.718 57.98 35.132 77.723-11.247 18.412-23.453 29.023-23.578 29.131a8.153 8.153 0 005.939 14.327c1.341-.107 31.956-2.721 59.114-20.983a103.87 103.87 0 0027.207 3.616c57.243 0 103.813-46.57 103.813-103.813C512 59.615 465.43 13.045 408.187 13.045zm0 191.32a87.484 87.484 0 01-26.236-4.011 8.15 8.15 0 00-7.248 1.194c-10.038 7.327-21.056 12.056-30.517 15.084a161.753 161.753 0 0012.989-20.038 8.154 8.154 0 00-2.185-10.378c-21.805-16.751-34.31-42.032-34.31-69.358 0-48.252 39.255-87.507 87.507-87.507s87.507 39.255 87.507 87.507-39.255 87.507-87.507 87.507z"/><path d="M416.883 160.883h-.544v-53.265h.544c4.503 0 8.153-3.65 8.153-8.153s-3.65-8.153-8.153-8.153H399.49c-4.503 0-8.153 3.65-8.153 8.153s3.65 8.153 8.153 8.153h.544v53.265h-.544a8.153 8.153 0 00-8.153 8.153 8.153 8.153 0 008.153 8.153h17.393a8.153 8.153 0 100-16.306z"/></svg>