<svg xmlns="http://www.w3.org/2000/svg" width="595.281" height="841.891" fill="#fff"><path d="M195.297 530.787c24.516 34.565 48.992 65.48 65.214 85.393 2.361 2.897 4.574 5.585 6.716 8.175h-48.951c-5.48 0-9.921 4.441-9.921 9.921s4.441 9.921 9.921 9.921h158.741c5.479 0 9.92-4.441 9.92-9.921s-4.441-9.921-9.92-9.921h-48.953c2.143-2.59 4.355-5.278 6.729-8.175 16.211-19.843 40.678-50.827 65.203-85.393a871.917 871.917 0 0065.539-105.633c20.26-39.785 30.539-72.813 30.539-98.172a198.294 198.294 0 00-58.109-140.497 9.923 9.923 0 00-16.738 4.368 9.92 9.92 0 002.699 9.65 178.52 178.52 0 0152.305 126.478c0 22.204-9.543 52.206-28.373 89.163a852.11 852.11 0 01-64.053 103.184c-24.188 34.119-48.367 64.687-64.391 84.331a1741.917 1741.917 0 01-14.207 17.184 10.049 10.049 0 01-15.12 0 1759.956 1759.956 0 01-14.208-17.184c-16.023-19.634-40.202-50.203-64.39-84.331a852.15 852.15 0 01-64.052-103.184c-18.85-36.957-28.375-66.959-28.375-89.163-.006-71.863 42.971-136.761 109.136-164.804a179.714 179.714 0 01138.998 0 9.926 9.926 0 107.748-18.275c-101.032-42.614-217.482 4.723-260.127 105.741a197.699 197.699 0 00-15.596 77.337c0 25.358 10.279 58.388 30.538 98.222a871.261 871.261 0 0065.538 105.585z"/><path d="M297.645 237.422a9.92 9.92 0 009.921-9.921 9.92 9.92 0 00-9.921-9.921c-47.332-.002-88.074 33.435-97.309 79.856-9.235 46.423 15.61 92.904 59.339 111.019s94.165 2.814 120.461-36.54c26.297-39.355 21.131-91.807-12.338-125.275a9.922 9.922 0 10-14.029 14.028c26.777 26.774 30.91 68.734 9.875 100.219-21.037 31.485-61.385 43.726-96.368 29.236-34.983-14.489-54.86-51.673-47.475-88.813 7.386-37.138 39.978-63.887 77.844-63.888zm293.901 432.284L530.529 560.57a30.835 30.835 0 00-26.996-15.586h-70.709c-5.479 0-9.92 4.441-9.92 9.921s4.441 9.921 9.92 9.921h70.709a11 11 0 019.693 5.417l60.998 109.136a8.933 8.933 0 01-.09 9.167 10.914 10.914 0 01-9.604 5.259H30.761a10.916 10.916 0 01-9.595-5.259 8.928 8.928 0 01-.089-9.167l60.997-109.136a10.992 10.992 0 019.683-5.417h70.71c5.479 0 9.921-4.441 9.921-9.921s-4.441-9.921-9.921-9.921h-70.71a30.856 30.856 0 00-27.016 15.586L3.734 669.706a28.776 28.776 0 00.308 28.882A30.562 30.562 0 0030.76 713.65h533.77a30.56 30.56 0 0026.709-15.062 28.77 28.77 0 00.307-28.882z"/></svg>