<svg xmlns="http://www.w3.org/2000/svg" width="595.275" height="595.276" viewBox="-27.351 13.879 595.275 595.276"><path fill="#54A0FF" d="M192.708 424.125c-28.228 0-51.184 22.947-51.184 51.176 0 28.228 22.956 51.18 51.184 51.18 28.214 0 51.176-22.952 51.176-51.18 0-28.229-22.962-51.176-51.176-51.176z"/><path fill="#B3D7FF" d="M192.708 510.316c-19.31 0-35.024-15.698-35.024-35.016 0-19.312 15.714-35.012 35.024-35.012 19.305 0 35.012 15.7 35.012 35.012-.001 19.318-15.708 35.016-35.012 35.016z"/><path fill="#54A0FF" d="M477.166 501.698h-9.157v-9.148c0-9.224-7.494-16.706-16.689-16.706h-.543V354.615c0-161.308-131.246-292.547-292.553-292.547h-14.566c-67.722 0-122.819 55.121-122.819 122.864 0 32.804 12.778 63.645 35.975 86.842l16.353 16.349c-16.667 23.725-26.466 52.605-26.466 83.739v146.535c0 13.968 11.361 25.331 25.323 25.331h69.21c14.339 10.813 32.169 17.238 51.476 17.238 47.229 0 85.661-38.437 85.661-85.665 0-19.31-6.421-37.137-17.236-51.476V251.173c0-13.957-11.361-25.316-25.331-25.316H192.71c-31.133 0-60.015 9.799-83.737 26.465l-16.349-16.359c-13.634-13.623-21.135-31.764-21.135-51.075 0-39.798 32.373-72.171 72.17-72.171h14.566c133.39 0 241.902 108.516 241.902 241.898v121.229h-.523c-9.23 0-16.709 7.482-16.709 16.706v10.488c-10.018 3.373-17.25 12.85-17.25 23.98v25.866a8.08 8.08 0 008.082 8.081h137.93a8.077 8.077 0 008.081-8.081v-8.615c-.003-23.48-19.092-42.571-42.572-42.571zM62.861 518.396v-9.157h51.209a85.538 85.538 0 0010.83 18.322H72.021c-5.049 0-9.16-4.105-9.16-9.165zm129.847 26.406c-38.323 0-69.502-31.18-69.502-69.501 0-38.322 31.179-69.498 69.502-69.498 38.322 0 69.497 31.176 69.497 69.498-.001 38.321-31.175 69.501-69.497 69.501zm52.263-293.629v156.321c-14.482-11.185-32.603-17.854-52.263-17.854-47.235 0-85.666 38.432-85.666 85.661 0 6.095.649 12.042 1.869 17.778h-46.05v-18.321h9.16c13.962 0 25.324-11.363 25.324-25.321v-77.575c0-14.32 3.217-28.225 9.565-41.336 9.354-19.315 25.141-35.115 44.46-44.462 8.721-4.225 17.912-7.08 27.313-8.514 12.807-1.934 22.106-12.487 22.106-25.094V242.02h35.012c5.053 0 9.17 4.106 9.17 9.153zM143.656 96.552c-48.708 0-88.334 39.627-88.334 88.335 0 23.625 9.187 45.82 25.87 62.503l15.004 15.01a146.014 146.014 0 00-12.951 12.95l-15.007-15.005c-20.142-20.139-31.237-46.921-31.237-75.413 0-58.834 47.846-106.7 106.654-106.7h14.566c68.92 0 132.03 25.361 180.486 67.235l-12.995 12.989c-45.107-38.573-103.618-61.904-167.491-61.904h-14.565zm194.025 72.8l12.948-12.947a276.876 276.876 0 0114.104 14.749l-12.959 12.97a263.256 263.256 0 00-14.093-14.772zm24.453 27.266a.211.211 0 01.061-.068l12.988-12.972c37.184 47.085 59.43 106.506 59.43 171.037v121.229h-18.326V354.615c0-59.47-20.239-114.304-54.153-157.997zm37.467 295.389h51.718c.289 0 .529.234.529.543v9.148h-52.792v-9.148c0-.309.232-.543.545-.543z"/><path fill="#B3D7FF" d="M184.625 242.279v10.176c0 4.544-3.515 8.387-8.369 9.114-11.003 1.675-21.748 5.021-31.929 9.948-22.578 10.925-41.035 29.388-51.962 51.967-7.422 15.324-11.185 31.605-11.185 48.378v77.575c0 5.052-4.107 9.157-9.16 9.157h-9.16v-86.732c.001-68.889 53.92-125.399 121.765-129.583zm318.946 302.523H381.806v-17.783c0-5.051 4.105-9.157 9.168-9.157h86.191c14.559 0 26.405 11.843 26.405 26.408v.532z"/></svg>