<svg xmlns="http://www.w3.org/2000/svg" width="595.275" height="595.276" viewBox="-27.351 13.879 595.275 595.276"><path fill="#54A0FF" d="M525.405 294.209c0-60.878-49.511-110.391-110.394-110.391-26.787 0-51.366 9.612-70.513 25.541h-57.473V102.945c0-16.432 13.365-29.798 29.802-29.798 16.425 0 29.791 13.366 29.791 29.798v21.282c0 23.471 19.099 42.566 42.563 42.566 23.476 0 42.571-19.095 42.571-42.566V56.122h-17.023v68.104c0 14.081-11.462 25.539-25.548 25.539-14.078 0-25.536-11.458-25.536-25.539v-21.282c0-25.813-21.005-46.823-46.817-46.823-25.814 0-46.825 21.01-46.825 46.823v106.414h-74.617c-19.038-15.597-43.351-24.978-69.826-24.978-60.872 0-110.391 49.513-110.391 110.389 0 21.107 6.062 40.778 16.37 57.566L21.485 499.173c0 37.355 30.392 67.74 67.73 67.74 30.146 0 56.221-19.402 64.811-48.058l29.142-88.324c8.827 15.331 25.343 25.699 44.266 25.699 17.76 0 33.41-9.116 42.569-22.898 9.159 13.792 24.807 22.898 42.569 22.898 19.821 0 37.011-11.38 45.471-27.933l29.802 90.325c8.663 28.888 34.748 48.29 64.894 48.29 37.356 0 67.737-30.385 67.72-68.322l-10.223-148.788c9.585-16.354 15.169-35.313 15.169-55.593zm-17.025 0c0 15.453-3.828 29.999-10.506 42.85l-3.621 5.962c-4.083 6.745-8.927 12.782-14.333 18.152-1.089 1.056-2.224 2.051-3.362 3.058a91.312 91.312 0 01-3.329 2.834c-15.978 12.796-36.208 20.5-58.218 20.5-51.476 0-93.362-41.883-93.362-93.363 0-19.18 5.83-37.016 15.785-51.863.123-.17.229-.348.349-.519 1.276-1.872 2.664-3.663 4.069-5.44.895-1.107 1.794-2.213 2.745-3.285a89.3 89.3 0 012.573-2.837c1.973-2.051 3.986-4.062 6.146-5.94.029-.018.049-.045.073-.062l3.061-2.663c16.043-12.95 36.394-20.747 58.561-20.747 51.489 0 93.369 41.883 93.369 93.363zm-238.369-67.825h57.893c-15.324 19.351-23.844 43.392-23.844 68.386 0 21.729 6.31 42.508 17.898 60.181-.155-.025-.317-.017-.473-.041-2.897-.512-5.86-.828-8.906-.828-2.015 0-3.986.146-5.936.375-.723.086-1.421.213-2.136.323a46.091 46.091 0 00-3.499.674c-.878.203-1.747.426-2.616.674-.892.263-1.769.552-2.647.856-.97.341-1.949.666-2.895 1.065-.435.19-.853.409-1.288.604a50.26 50.26 0 00-6.867 3.764c-.266.17-.536.325-.794.496a51.24 51.24 0 00-3.105 2.321 49.213 49.213 0 00-3.924 3.458c-.459.453-.902.927-1.345 1.404-.767.818-1.542 1.618-2.258 2.486a51.14 51.14 0 00-3.105 4.146c-.052.077-.113.145-.162.211-.053-.076-.11-.142-.162-.211a51.416 51.416 0 00-3.09-4.13c-.742-.893-1.542-1.729-2.342-2.57-.419-.434-.815-.876-1.243-1.295a49.112 49.112 0 00-3.896-3.439 46.988 46.988 0 00-3.204-2.39c-.194-.131-.397-.249-.586-.378a50.581 50.581 0 00-7.27-3.975c-.341-.153-.674-.333-1.022-.484-.971-.41-1.966-.742-2.972-1.092a54.624 54.624 0 00-2.578-.84 44.833 44.833 0 00-2.647-.682 51.774 51.774 0 00-3.475-.666c-.714-.109-1.422-.245-2.151-.328a49.656 49.656 0 00-5.917-.378c-1.866 0-3.706.113-5.524.308-.029 0-.061 0-.093.008 11.449-17.648 17.705-38.302 17.705-59.628 0-25.002-8.514-49.035-23.835-68.386h54.311zm-144.443-24.978c51.478 0 93.364 41.887 93.364 93.363 0 51.115-41.306 92.717-92.284 93.305-32.502-.287-61.985-17.051-78.951-45.054l-9.535-15.711c-3.789-10.15-5.968-21.079-5.968-32.54.018-51.476 41.903-93.363 93.374-93.363zm12.241 312.342c-6.486 21.616-26.016 36.138-48.593 36.138-27.966 0-50.713-22.743-50.73-50.133l8.743-127.308c20.032 20.186 47.743 32.717 78.339 32.717.331 0 .647-.043.97-.05.323 0 .639.05.963.05 17.502 0 34.667-4.196 50.098-12.073l-39.79 120.659zm356.788-143.151l8.854 128.575c0 27.97-22.749 50.713-50.714 50.713-22.569 0-42.091-14.521-48.654-36.361l-39.731-120.427c15.427 7.869 32.599 12.065 50.1 12.065 29.006 0 55.915-11.212 76.169-30.731 1.133-1.063 2.275-2.119 3.363-3.236.197-.204.426-.383.613-.598z"/><path fill="#B3D7FF" d="M227.445 439.215c-18.78 0-34.054-15.273-34.054-34.053 0-8.394 3.167-15.995 8.226-21.938l2.042-2.052c4.852-4.871 10.819-8.098 17.231-9.408 2.127-.416 4.308-.664 6.555-.664 2.34 0 4.629.241 6.833.69.156.025.284.093.435.126 2.063.45 4.061 1.048 5.96 1.854.077.038.138.086.212.114a33.483 33.483 0 015.532 3.006c.256.169.463.388.718.567 1.49 1.065 2.92 2.206 4.223 3.485.67.671 1.226 1.444 1.838 2.17.748.868 1.532 1.703 2.187 2.649 1.03 1.498 1.907 3.105 2.691 4.773.11.241.263.444.373.691a34.391 34.391 0 012.923 12.915l.056 1.776c-.039 2.062-.21 4.106-.612 6.063l-.008.053c-3.198 15.502-16.941 27.183-33.361 27.183zm85.135 0c-16.427 0-30.165-11.681-33.356-27.173l-.008-.054c-.402-1.964-.573-3.998-.613-6.07l.056-1.822a34.295 34.295 0 012.94-12.894c.102-.223.235-.41.34-.623.792-1.688 1.687-3.311 2.735-4.837.603-.859 1.318-1.618 1.996-2.417.674-.8 1.287-1.653 2.038-2.392 1.206-1.193 2.554-2.24 3.929-3.243.342-.256.642-.562 1.001-.799 1.647-1.11 3.423-2.045 5.251-2.855.17-.076.316-.188.482-.255 1.851-.782 3.79-1.353 5.788-1.795.21-.042.396-.136.601-.179a33.376 33.376 0 016.82-.698c2.069 0 4.075.256 6.05.613.649.118 1.282.272 1.924.426a33.06 33.06 0 013.913 1.219c.65.246 1.309.45 1.933.729a32.821 32.821 0 014.743 2.581c.657.433 1.251.943 1.885 1.422.893.67 1.761 1.37 2.581 2.129a35.95 35.95 0 011.973 1.99 32.062 32.062 0 011.826 2.224c.611.792 1.243 1.557 1.779 2.4.479.741.845 1.549 1.265 2.325.383.714.813 1.386 1.147 2.127l.511 1.132c1.592 3.942 2.518 8.223 2.518 12.726-.002 18.789-15.264 34.063-34.048 34.063z"/><path fill="#54A0FF" d="M261.499 268.952h25.54a8.507 8.507 0 008.51-8.515 8.504 8.504 0 00-8.51-8.513h-25.54a8.504 8.504 0 00-8.515 8.513 8.507 8.507 0 008.515 8.515zm208.571 51.079c16.431 0 29.796-13.366 29.796-29.796 0-16.431-13.365-29.797-29.796-29.797-16.432 0-29.797 13.366-29.797 29.797 0 16.43 13.365 29.796 29.797 29.796z"/><path fill="#B3D7FF" d="M470.07 277.465c7.041 0 12.769 5.729 12.769 12.77 0 7.039-5.728 12.768-12.769 12.768-7.04 0-12.769-5.729-12.769-12.768 0-7.04 5.729-12.77 12.769-12.77z"/><path fill="#54A0FF" d="M329.598 290.235c0 16.43 13.372 29.796 29.8 29.796s29.798-13.366 29.798-29.796c0-16.431-13.37-29.797-29.798-29.797s-29.8 13.365-29.8 29.797z"/><path fill="#B3D7FF" d="M372.172 290.235c0 7.039-5.734 12.768-12.774 12.768-7.038 0-12.771-5.729-12.771-12.768 0-7.04 5.733-12.77 12.771-12.77 7.04 0 12.774 5.73 12.774 12.77z"/><path fill="#54A0FF" d="M80.303 320.031h19.452v19.451c0 8.047 6.555 14.6 14.602 14.6h21.879c8.042 0 14.599-6.553 14.599-14.6v-19.451h19.451c8.047 0 14.6-6.557 14.6-14.6v-21.879c0-8.046-6.553-14.599-14.6-14.599h-19.451v-19.456c0-8.042-6.557-14.6-14.599-14.6h-21.879c-8.047 0-14.602 6.558-14.602 14.6v19.456H80.303c-8.045 0-14.6 6.553-14.6 14.599v21.879c0 8.043 6.546 14.6 14.6 14.6z"/><path fill="#B3D7FF" d="M82.729 285.976h34.053v-34.051h17.025v34.051h34.052v17.027h-34.052v34.056h-17.025v-34.056H82.729c-.008 0-.008-17.027 0-17.027z"/><path fill="#54A0FF" d="M414.737 307.261c-16.435 0-29.8 13.366-29.8 29.797 0 16.428 13.365 29.795 29.8 29.795 16.427 0 29.792-13.368 29.792-29.795 0-16.43-13.374-29.797-29.792-29.797z"/><path fill="#B3D7FF" d="M414.737 349.827c-7.039 0-12.773-5.729-12.773-12.768 0-7.044 5.734-12.774 12.773-12.774 7.04 0 12.768 5.729 12.768 12.774-.001 7.039-5.728 12.768-12.768 12.768z"/><path fill="#54A0FF" d="M414.737 273.207c16.427 0 29.792-13.365 29.792-29.797 0-16.43-13.365-29.796-29.792-29.796-16.435 0-29.8 13.366-29.8 29.796 0 16.432 13.365 29.797 29.8 29.797z"/><path fill="#B3D7FF" d="M414.737 230.642c7.04 0 12.768 5.729 12.768 12.768 0 7.041-5.728 12.77-12.768 12.77-7.039 0-12.773-5.729-12.773-12.77-.001-7.039 5.734-12.768 12.773-12.768z"/></svg>