<svg xmlns="http://www.w3.org/2000/svg" width="595.275" height="595.276" viewBox="-27.351 13.879 595.275 595.276"><g fill="#54A0FF"><circle cx="60.638" cy="101.868" r="8.386"/><circle cx="479.935" cy="101.868" r="8.386"/><circle cx="60.638" cy="521.165" r="8.387"/><circle cx="110.955" cy="529.551" r="8.386"/><circle cx="144.498" cy="529.551" r="8.386"/><circle cx="178.041" cy="529.551" r="8.386"/><circle cx="211.585" cy="529.551" r="8.386"/><circle cx="337.375" cy="386.99" r="8.386"/><circle cx="303.831" cy="386.99" r="8.386"/><circle cx="320.603" cy="361.832" r="8.385"/><circle cx="270.287" cy="386.99" r="8.386"/><circle cx="236.742" cy="386.99" r="8.386"/><circle cx="287.058" cy="361.832" r="8.385"/><circle cx="253.516" cy="361.832" r="8.385"/><circle cx="203.199" cy="386.99" r="8.386"/><circle cx="219.972" cy="361.832" r="8.385"/><circle cx="337.375" cy="336.674" r="8.385"/><circle cx="303.831" cy="336.674" r="8.385"/><circle cx="320.603" cy="311.517" r="8.386"/><circle cx="270.287" cy="336.674" r="8.385"/><circle cx="236.742" cy="336.674" r="8.385"/><circle cx="287.058" cy="311.517" r="8.386"/><circle cx="253.516" cy="311.517" r="8.386"/><circle cx="203.199" cy="336.674" r="8.385"/><circle cx="219.972" cy="311.517" r="8.386"/><circle cx="337.375" cy="286.359" r="8.386"/><circle cx="303.831" cy="286.359" r="8.386"/><circle cx="320.603" cy="261.201" r="8.386"/><circle cx="270.287" cy="286.359" r="8.386"/><circle cx="236.742" cy="286.359" r="8.386"/><circle cx="287.058" cy="261.201" r="8.386"/><circle cx="253.516" cy="261.201" r="8.386"/><circle cx="203.199" cy="286.359" r="8.386"/><circle cx="219.972" cy="261.201" r="8.386"/><circle cx="337.375" cy="236.043" r="8.386"/><circle cx="303.831" cy="236.043" r="8.386"/><circle cx="270.287" cy="236.043" r="8.386"/><circle cx="236.742" cy="236.043" r="8.386"/><circle cx="203.199" cy="236.043" r="8.386"/><circle cx="479.935" cy="521.165" r="8.387"/><circle cx="52.253" cy="370.218" r="8.386"/><circle cx="52.253" cy="403.762" r="8.385"/><path d="M52.253 428.921a8.384 8.384 0 018.385 8.383c0 4.633-3.754 8.389-8.385 8.389a8.387 8.387 0 010-16.772z"/><circle cx="52.253" cy="470.848" r="8.387"/></g><path fill="#54A0FF" d="M446.391 269.588a8.386 8.386 0 008.387-8.387 8.386 8.386 0 00-8.387-8.386H429.62v-16.772h-33.545v-13.778c0-20.144-16.395-36.538-36.536-36.538h-13.778v-33.544h-16.774v-16.771a8.383 8.383 0 00-8.384-8.386 8.383 8.383 0 00-8.386 8.386v16.771h-16.773v-16.771a8.384 8.384 0 00-8.387-8.386 8.382 8.382 0 00-8.384 8.386v16.771h-16.772v-16.771a8.383 8.383 0 00-8.385-8.386 8.384 8.384 0 00-8.387 8.386v16.771h-16.772v-16.771a8.383 8.383 0 00-8.386-8.386 8.384 8.384 0 00-8.387 8.386v16.771h-16.771v33.544h-13.779c-20.144 0-36.537 16.395-36.537 36.538v13.778h-33.543v16.772H94.182a8.384 8.384 0 00-8.386 8.386 8.384 8.384 0 008.386 8.387h16.772v16.771H94.182a8.384 8.384 0 00-8.386 8.386 8.384 8.384 0 008.386 8.386h16.772v16.772H94.182c-4.629 0-8.386 3.749-8.386 8.386s3.757 8.386 8.386 8.386h16.772v16.772H94.182a8.384 8.384 0 00-8.386 8.385 8.383 8.383 0 008.386 8.385h16.772v16.772h33.543v13.778c0 20.143 16.394 36.535 36.537 36.535h13.779v33.545h16.771v16.771a8.384 8.384 0 008.387 8.387 8.384 8.384 0 008.386-8.387v-16.771h16.772v16.771a8.384 8.384 0 008.387 8.387 8.383 8.383 0 008.385-8.387v-16.771h16.772v16.771a8.383 8.383 0 008.384 8.387 8.384 8.384 0 008.387-8.387v-16.771h16.773v16.771a8.383 8.383 0 008.386 8.387 8.383 8.383 0 008.384-8.387v-16.771h16.774v-33.545h13.778c20.142 0 36.536-16.393 36.536-36.535V386.99h33.545v-16.772h16.771a8.385 8.385 0 008.387-8.385 8.385 8.385 0 00-8.387-8.385H429.62v-16.772h16.771c4.628 0 8.387-3.749 8.387-8.386s-3.759-8.386-8.387-8.386H429.62v-16.772h16.771a8.386 8.386 0 008.387-8.386 8.385 8.385 0 00-8.387-8.386H429.62v-16.771h16.771zm-67.089-33.545v164.725c0 10.902-8.871 19.767-19.763 19.767H181.035c-10.894 0-19.765-8.874-19.765-19.767V222.265c0-10.901 8.872-19.766 19.765-19.766h178.504c10.901 0 19.763 8.872 19.763 19.766v13.778z"/><path d="M127.726 252.815h16.772v117.402h-16.772zm83.859-83.86h117.402v16.772H211.585zm0 268.348h117.402v16.773H211.585zm184.491-184.488h16.771v117.402h-16.771z" fill="#B3D7FF"/><path fill="#54A0FF" d="M475.75 59.939h-71.287v8.386c0 13.87-11.289 25.157-25.16 25.157-13.868 0-25.157-11.287-25.157-25.157v-8.386H64.823c-25.426 0-46.114 20.687-46.114 46.113v54.517h33.544v16.772H18.709V516.98c0 25.424 20.688 46.113 46.114 46.113h289.322v-8.387c0-13.869 11.289-25.156 25.157-25.156 13.871 0 25.16 11.287 25.16 25.156v8.387h71.287c25.427 0 46.115-20.689 46.115-46.113V106.052c.001-25.426-20.688-46.113-46.114-46.113zM505.092 202.5h-16.771a8.384 8.384 0 00-8.386 8.386 8.384 8.384 0 008.386 8.385h16.771v8.386h-16.771c-4.628 0-8.386 3.749-8.386 8.386s3.758 8.386 8.386 8.386h16.771v8.386h-16.771a8.385 8.385 0 00-8.386 8.386 8.385 8.385 0 008.386 8.387h16.771v8.385h-16.771a8.385 8.385 0 00-8.386 8.386 8.384 8.384 0 008.386 8.386h16.771v8.386h-16.771c-4.628 0-8.386 3.749-8.386 8.386s3.758 8.386 8.386 8.386h16.771v8.386h-16.771a8.383 8.383 0 00-8.386 8.386 8.383 8.383 0 008.386 8.385h16.771v8.387h-16.771a8.384 8.384 0 00-8.386 8.385 8.383 8.383 0 008.386 8.385h16.771v8.387h-16.771a8.385 8.385 0 00-8.386 8.386 8.385 8.385 0 008.386 8.387h16.771v8.385h-16.771a8.385 8.385 0 00-8.386 8.386 8.386 8.386 0 008.386 8.388h16.771v96.446c0 16.184-13.157 29.342-29.343 29.342h-55.363c-3.891-19.113-20.839-33.545-41.084-33.545-20.242 0-37.19 14.432-41.08 33.545H64.823c-16.185 0-29.342-13.158-29.342-29.342V194.114h33.543v-50.316H35.481v-37.746c0-16.184 13.157-29.342 29.342-29.342h273.399c3.89 19.112 20.829 33.544 41.08 33.544 20.254 0 37.193-14.432 41.084-33.544h55.363c16.186 0 29.343 13.158 29.343 29.342V202.5z"/></svg>