<svg xmlns="http://www.w3.org/2000/svg" width="595.275" height="595.276" viewBox="-27.351 13.879 595.275 595.276"><path fill="#54A0FF" d="M484.585 356.157v-44.644h8.924v-23.34c0-50.351-18.789-98.906-52.727-137.57.595-2.206 1.009-4.466.999-6.787-.029-7.204-3.087-14.079-8.384-18.884C393.906 89.153 321.455 70.43 270.286 70.43c-51.164 0-123.623 18.723-163.116 54.493-5.295 4.805-8.35 11.69-8.374 18.887 0 .927.188 1.831.277 2.75-33.486 38.744-52.014 88.783-52.014 141.615v23.34h8.93v44.644c-29.544 0-53.577 24.033-53.577 53.578v89.29c0 29.547 24.032 53.579 53.577 53.579h49.234c22.083 0 40.056-17.982 40.056-40.057V398.904c0-21.165-15.5-38.653-35.716-42.038v-45.353h8.93v-23.34c0-33.966 12.142-67.489 33.277-92.865a26.249 26.249 0 0017.805-6.416c20.145-17.448 68.337-29.173 100.712-29.173 32.385 0 80.563 11.725 100.704 29.173a26.292 26.292 0 0013.228 6.099c24.039 25.93 37.86 59.67 37.86 93.182v23.34h8.929v45.358c-20.205 3.379-35.707 20.867-35.707 42.042v113.644c0 22.064 17.963 40.047 40.056 40.047h49.231c29.549 0 53.574-24.032 53.574-53.579v-89.29c-.002-29.544-24.028-53.578-53.577-53.578zm-358.296 35.718h-16.726a8.926 8.926 0 00-8.927 8.929 8.925 8.925 0 008.927 8.932h17.857v17.856h-17.857a8.925 8.925 0 00-8.927 8.938c0 4.933 3.997 8.915 8.927 8.915h17.857v17.863h-17.857a8.925 8.925 0 00-8.927 8.927c0 4.941 3.997 8.938 8.927 8.938h17.857v17.854h-17.857a8.923 8.923 0 00-8.927 8.931 8.919 8.919 0 008.927 8.923h17.422c-2.026 10.172-11.013 17.858-21.762 17.858H64.919V374.02h37.618c11.268 0 20.697 7.572 23.752 17.855zm-52.443-35.718v-44.644h17.858v44.644H73.846zm26.79-67.983v5.485H64.919v-5.485c0-46.037 15.168-89.811 42.922-124.48l26.586 24.438c-21.865 28.153-33.791 63.277-33.791 100.042zM475.65 534.737h-40.295c-10.764 0-19.738-7.687-21.768-17.858h17.419c4.93 0 8.938-3.985 8.938-8.923 0-4.941-4.008-8.931-8.938-8.931h-17.853v-17.854h17.853c4.93 0 8.938-3.996 8.938-8.938 0-4.933-4.008-8.927-8.938-8.927h-17.853v-17.863h17.853c4.93 0 8.938-3.982 8.938-8.915a8.935 8.935 0 00-8.938-8.938h-17.853v-17.856h17.853c4.93 0 8.938-3.991 8.938-8.932 0-4.934-4.008-8.929-8.938-8.929H414.29c3.044-10.283 12.475-17.854 23.745-17.854h37.614v160.718zm-26.782-178.58v-44.644h17.86v44.644h-17.86zm26.782-62.498h-35.706v-5.485c0-34.866-13.044-69.941-36.14-98.049.64-.49 1.262-1.003 1.848-1.548l24.852-22.83c29.19 34.813 45.146 77.922 45.146 122.427v5.485z"/><path fill="#B3D7FF" d="M47.059 533.608c-15.385-3.968-26.785-17.976-26.785-34.583v-89.29c0-16.607 11.399-30.62 26.785-34.585v158.458zM393.56 175.427c-.031.027-.067.027-.088.051-.862.761-1.762 1.262-2.61 1.554-.563.195-1.168.251-1.761.324-.23.018-.524.115-.732.126l-.346.008a8.527 8.527 0 01-5.337-2.092c-26.683-23.134-81.805-33.535-112.4-33.535-30.596 0-85.708 10.401-112.409 33.525-2.247 1.938-5.104 2.458-7.671 1.734-1.274-.36-2.336-.904-3.203-1.696l-27.7-25.458s0-.009-.009-.009c-.942-.867-1.631-2.054-2.106-3.458-.286-.846-.543-1.712-.543-2.622.01-2.233.899-4.268 2.51-5.725 35.757-32.395 104.562-49.869 151.132-49.869 46.582 0 115.375 17.474 151.121 49.869 1.609 1.457 2.509 3.492 2.513 5.725a8.122 8.122 0 01-.663 3.186l-.277.501c-.404.805-.911 1.555-1.572 2.188-.052.053-.099.168-.157.214l-27.692 25.459zm126.738 323.598c0 16.607-11.402 30.615-26.789 34.583V375.15c15.387 3.965 26.789 17.978 26.789 34.585v89.29z"/></svg>