<svg xmlns="http://www.w3.org/2000/svg" width="595.275" height="595.276" viewBox="-27.351 13.879 595.275 595.276"><path fill="#54A0FF" d="M534.812 451.118H521.58V153.921c0-20.876-16.979-37.853-37.849-37.853H56.837c-20.866 0-37.84 16.977-37.84 37.853v297.197H5.761c-8.095 0-14.687 6.594-14.687 14.691v26.466c0 8.097 6.592 14.689 14.687 14.689h529.051c8.098 0 14.688-6.593 14.688-14.689v-26.466c0-8.097-6.59-14.691-14.688-14.691zm-41.156-9.298H46.917V143.99h446.739v297.83z"/><path fill="#B3D7FF" d="M483.721 134.683H56.837c-10.599 0-19.228 8.626-19.228 19.238v297.197H231.17l2.206 6.172c.567 1.566 2.122 3.141 4.337 3.141h74.451c2.222 0 3.776-1.574 4.344-3.141l2.199-6.172h184.252V153.921c0-10.611-8.626-19.238-19.238-19.238zm-8.678 288.516H65.531V162.602h409.513v260.597zm55.839 65.154H9.69v-18.619h209.49c4.319 5.749 11.151 9.307 18.534 9.307h74.451c7.385 0 14.211-3.558 18.535-9.307h200.183v18.619z"/><path d="M102.76 246.365a9.278 9.278 0 006.579-2.723l37.228-37.229a9.292 9.292 0 000-13.161 9.292 9.292 0 00-13.159 0l-37.229 37.229a9.3 9.3 0 000 13.161 9.284 9.284 0 006.581 2.723zm0 46.539a9.284 9.284 0 006.579-2.729l18.616-18.615a9.3 9.3 0 000-13.161 9.3 9.3 0 00-13.161 0l-18.615 18.617a9.297 9.297 0 000 13.159 9.286 9.286 0 006.581 2.729zm30.619-53.145c-1.684 1.77-2.698 4.189-2.698 6.606 0 2.42 1.014 4.842 2.698 6.611 1.759 1.673 4.19 2.698 6.608 2.698 2.421 0 4.839-1.025 6.609-2.698 1.675-1.77 2.699-4.191 2.699-6.611 0-2.417-1.024-4.836-2.699-6.606-3.443-3.442-9.875-3.35-13.217 0zm18.643-5.425a9.278 9.278 0 006.579 2.725c2.383 0 4.766-.91 6.583-2.725l27.919-27.92a9.298 9.298 0 000-13.161 9.297 9.297 0 00-13.163 0l-27.918 27.918a9.298 9.298 0 000 13.163zM102.76 339.441a9.285 9.285 0 006.579-2.73l83.765-83.762a9.297 9.297 0 000-13.16 9.298 9.298 0 00-13.163 0l-83.762 83.762a9.298 9.298 0 000 13.16 9.292 9.292 0 006.581 2.73zm95.769-105.081c1.762 1.678 4.19 2.699 6.606 2.699 2.421 0 4.843-1.021 6.612-2.699 1.672-1.766 2.698-4.186 2.698-6.606 0-2.514-1.026-4.842-2.698-6.608-3.446-3.446-9.683-3.446-13.218 0-1.684 1.766-2.699 4.188-2.699 6.608s1.015 4.84 2.699 6.606zm25.223-15.913a9.285 9.285 0 006.578-2.728l9.311-9.306a9.3 9.3 0 000-13.161 9.297 9.297 0 00-13.163 0l-9.309 9.307a9.297 9.297 0 000 13.159 9.29 9.29 0 006.583 2.729z" fill="#54A0FF"/></svg>