<svg xmlns="http://www.w3.org/2000/svg" width="595.275" height="595.276" viewBox="-27.351 13.879 595.275 595.276"><path d="M155.891 174.234a9.12 9.12 0 006.469-2.68l36.609-36.608a9.142 9.142 0 000-12.942 9.145 9.145 0 00-12.943 0l-36.608 36.609a9.143 9.143 0 000 12.941 9.145 9.145 0 006.473 2.68zm0 45.763a9.122 9.122 0 006.469-2.683l18.304-18.305a9.138 9.138 0 000-12.94 9.141 9.141 0 00-12.94 0l-18.306 18.304a9.143 9.143 0 000 12.941 9.149 9.149 0 006.473 2.683zm30.119-52.259c-1.648 1.729-2.654 4.118-2.654 6.497 0 2.381 1.006 4.76 2.654 6.5 1.729 1.647 4.109 2.653 6.489 2.653s4.759-1.006 6.497-2.653c1.647-1.74 2.655-4.119 2.655-6.5 0-2.479-1.007-4.767-2.655-6.497-3.385-3.388-9.518-3.388-12.986 0zm18.323-5.336a9.139 9.139 0 006.47 2.682 9.13 9.13 0 006.472-2.682l27.454-27.456a9.142 9.142 0 000-12.942 9.139 9.139 0 00-12.938 0l-27.458 27.457a9.157 9.157 0 000 12.941zm27.457 5.363l-82.371 82.369a9.141 9.141 0 000 12.94 9.138 9.138 0 006.472 2.681 9.116 9.116 0 006.469-2.681l82.368-82.369a9.14 9.14 0 000-12.941 9.138 9.138 0 00-12.938.001zm18.283-18.332c-1.646 1.729-2.654 4.017-2.654 6.497 0 2.38 1.008 4.76 2.654 6.499 1.731 1.646 4.112 2.654 6.493 2.654 2.379 0 4.755-1.007 6.496-2.654 1.647-1.739 2.655-4.119 2.655-6.499a9.037 9.037 0 00-2.655-6.406c-3.388-3.478-9.611-3.478-12.989-.091zm27.473-27.429l-9.15 9.152a9.142 9.142 0 000 12.942 9.146 9.146 0 006.471 2.681 9.132 9.132 0 006.471-2.681l9.152-9.152a9.144 9.144 0 000-12.942 9.146 9.146 0 00-12.944 0z" fill="#54A0FF"/><path fill="#54A0FF" d="M394.21 36.955H155.543c-19.989 0-36.262 16.263-36.262 36.259v46.11a9.15 9.15 0 00-9.152 9.152v9.151a9.15 9.15 0 009.152 9.153v9.151a9.15 9.15 0 00-9.152 9.153v9.151a9.15 9.15 0 009.152 9.153v9.152a9.15 9.15 0 00-9.152 9.153v9.151a9.15 9.15 0 009.152 9.153v329.821c0 19.998 16.263 36.264 36.252 36.264H394.19c20.001 0 36.254-16.266 36.254-36.264V73.214c.008-19.996-16.252-36.259-36.234-36.259zm-119.342 521.67c-10.095 0-18.302-8.212-18.302-18.307 0-10.093 8.208-18.305 18.302-18.305s18.302 8.212 18.302 18.305c0 10.095-8.198 18.307-18.302 18.307zM137.585 110.171h274.563v384.388H137.585V110.171z"/><path fill="#B3D7FF" d="M137.585 549.818v-36.955h113.322c-7.686 6.717-12.647 16.465-12.647 27.455 0 10.993 4.961 20.74 12.647 27.459h-95.363c-9.905 0-17.959-8.053-17.959-17.959zm274.563 0c0 9.906-8.054 17.959-17.938 17.959h-95.386c7.694-6.719 12.653-16.466 12.653-27.459 0-10.99-4.959-20.738-12.653-27.455h113.323v36.955zM137.585 91.866V73.214c0-9.901 8.054-17.956 17.958-17.956H394.2c9.894 0 17.947 8.055 17.947 17.956v18.652H137.585z"/><path d="M311.478 64.41h-45.762a9.147 9.147 0 00-9.151 9.151 9.147 9.147 0 009.151 9.152h45.762c5.051 0 9.15-4.09 9.15-9.152a9.148 9.148 0 00-9.15-9.151zm-73.219 0h-9.154a9.15 9.15 0 00-9.151 9.151 9.15 9.15 0 009.151 9.152h9.154c5.052 0 9.154-4.09 9.154-9.152 0-5.06-4.102-9.151-9.154-9.151z" fill="#54A0FF"/></svg>