<svg xmlns="http://www.w3.org/2000/svg" width="595.275" height="595.276" viewBox="-27.351 13.879 595.275 595.276"><path fill="#54A0FF" d="M499.446 209.939c-9.458-5.931-21.77-6.068-31.364-.339-9.365 5.591-15.036 15.342-15.145 26.085-.085 8.232 3.091 15.93 8.73 21.691a31.213 31.213 0 005.864 4.703c9.465 5.927 21.774 6.063 31.352.339 9.364-5.591 15.022-15.343 15.144-26.085.113-10.735-5.331-20.599-14.581-26.394zm-9.52 37.507c-3.956 2.359-9.226 2.303-13.136-.145-4.112-2.593-6.445-6.745-6.39-11.43.049-4.69 2.47-8.792 6.638-11.283 3.96-2.367 9.237-2.303 13.135.143a14.262 14.262 0 012.668 2.127c2.437 2.489 3.767 5.743 3.735 9.292-.056 4.682-2.477 8.797-6.65 11.296zM174.99 496.533c-9.366 5.59-15.034 15.342-15.143 26.084-.086 8.232 3.089 15.932 8.729 21.693a31.399 31.399 0 005.863 4.703c9.465 5.926 21.775 6.061 31.353.338 9.365-5.592 15.021-15.342 15.143-26.084.108-10.73-5.337-20.594-14.574-26.404-9.458-5.93-21.768-6.068-31.371-.33zm24.761 17.258c2.436 2.488 3.767 5.742 3.734 9.291-.056 4.682-2.47 8.791-6.643 11.289-3.956 2.359-9.227 2.303-13.137-.145-4.101-2.605-6.452-6.74-6.389-11.43.049-4.691 2.469-8.791 6.638-11.285 3.96-2.363 9.237-2.301 13.135.146a14.77 14.77 0 012.662 2.134z"/><path fill="#54A0FF" d="M544.804 217.563l-97.099-99.184-6.236 6.105c-6.879 6.734-17.949 6.617-24.683-.262-6.733-6.878-6.616-17.948.263-24.682l6.235-6.105-18.313-18.707-12.21-12.472-30.524-31.18L331.056 61.6l12.21 12.472L31.468 379.317l-12.209-12.472-31.181 30.525 30.524 31.18 12.21 12.473 18.314 18.707 6.236-6.105c6.878-6.732 17.948-6.615 24.682.262 6.734 6.879 6.617 17.949-.262 24.684l-6.236 6.104 97.099 99.186c10.421 10.643 27.555 10.818 38.2.396L544.39 255.761c10.645-10.42 10.828-27.56.414-38.198zM31.074 416.341l-18.315-18.708 6.236-6.104 12.211 12.473L367.949 74.335l-12.211-12.473 6.236-6.105 18.315 18.708L31.074 416.341zm451.819-124.797l-30.525-31.181-12.472 12.21 30.525 31.181-6.237 6.105-30.525-31.181-12.472 12.209 30.525 31.181-6.235 6.105-30.526-31.181-12.472 12.21 30.525 31.181-6.235 6.105-30.526-31.181-12.471 12.209 30.525 31.181-6.236 6.105-30.525-31.181-12.472 12.21 30.525 31.181-6.236 6.105-30.525-31.181-12.473 12.209 30.526 31.181-6.236 6.105-30.526-31.181-12.472 12.21 30.525 31.181-6.235 6.105-30.525-31.181-12.473 12.209 30.527 31.181-6.236 6.105-30.526-31.181-12.472 12.209 30.526 31.181-6.237 6.105-30.525-31.182-12.473 12.211 30.525 31.182-6.235 6.105-30.525-31.182-12.473 12.209 30.526 31.182-6.236 6.105-30.525-31.182-12.472 12.211 30.526 31.18-6.236 6.105-30.525-31.182-12.472 12.211 30.526 31.18-49.289 48.254c-3.767 3.688-9.833 3.629-13.52-.137l-85.66-87.494c8.035-13.299 6.42-30.867-4.941-42.473s-28.886-13.586-42.359-5.842l-6.875-7.023L392.5 86.937l6.874 7.022c-8.035 13.299-6.42 30.867 4.941 42.472s28.886 13.587 42.358 5.843l85.659 87.498c3.687 3.766 3.622 9.826-.15 13.519l-49.289 48.253z"/><path fill="#54A0FF" d="M440.813 186.188l-12.21-12.472-12.471 12.21-6.105-6.236 12.472-12.21-12.21-12.471-12.472 12.209-6.105-6.236 12.472-12.21-12.209-12.471-12.473 12.21-12.21-12.473-49.887 48.839 12.211 12.472-12.473 12.211 12.209 12.471 12.473-12.21 6.104 6.236-12.471 12.21 12.209 12.472 12.472-12.209 6.105 6.235-12.472 12.21 12.209 12.472 12.473-12.21 12.21 12.472 49.886-48.84-12.21-12.472z"/><path fill="#B3D7FF" d="M367.038 160.737l48.841 49.888-24.945 24.422-48.841-49.889z"/><path fill="#54A0FF" d="M216.318 405.965l-12.209-12.472-12.473 12.211-6.105-6.236 12.473-12.21-12.21-12.473-12.473 12.21-6.105-6.235 12.473-12.211-12.209-12.471-12.473 12.21-12.211-12.473-49.887 48.84 12.211 12.473-12.472 12.21 12.209 12.47 12.472-12.209 6.105 6.237-12.472 12.209 12.21 12.472 12.472-12.211 6.105 6.237-12.473 12.211 12.21 12.47 12.472-12.209 12.209 12.473 49.889-48.84-12.211-12.473z"/><path fill="#B3D7FF" d="M142.53 380.518l48.841 49.888-24.944 24.421-48.841-49.888z"/><path fill="#54A0FF" d="M328.566 296.075l-12.209-12.471-12.473 12.21-6.105-6.236 12.472-12.21-12.209-12.471-12.472 12.209-6.105-6.236 12.472-12.21-12.209-12.471-12.473 12.21-12.21-12.472-49.888 48.838 12.211 12.473-12.472 12.21 12.208 12.472 12.473-12.211 6.105 6.237-12.473 12.21 12.21 12.472 12.473-12.21 6.105 6.236-12.473 12.21 12.209 12.471 12.473-12.21 12.21 12.472 49.888-48.839-12.211-12.472z"/><path fill="#B3D7FF" d="M254.785 270.627l48.842 49.889-24.946 24.421-48.84-49.888z"/></svg>