<svg xmlns="http://www.w3.org/2000/svg" width="595.275" height="595.276" viewBox="-27.351 13.879 595.275 595.276"><path fill="#54A0FF" d="M427.973 266.523h-13.688v-87.355c0-26.271-21.379-47.645-47.646-47.645h-1.146l-6.162-10.738c-5.773-10.07-8.831-21.311-8.831-32.516-.01-25.777-23.466-46.746-52.305-46.746h-91.82c-28.842 0-52.316 20.969-52.316 46.736 0 11.205-3.059 22.447-8.828 32.516l-6.165 10.748h-1.142c-26.263 0-47.638 21.375-47.638 47.645v264.711c0 26.268 21.375 47.641 47.638 47.641h1.142l6.165 10.737c5.779 10.074 8.828 21.311 8.828 32.519 0 25.765 23.464 46.736 52.316 46.736h91.81c28.842 0 52.314-20.972 52.314-46.736 0-11.208 3.063-22.444 8.831-32.519l6.154-10.737h1.144c26.277 0 47.656-21.373 47.656-47.641v-87.36h13.688c12.304 0 22.314-10.003 22.314-22.309v-45.387c.002-12.296-10.009-22.3-22.313-22.3zm-31.688 177.356c0 16.342-13.312 29.643-29.646 29.643H137.925c-16.345 0-29.637-13.301-29.637-29.643V179.168c0-16.344 13.292-29.646 29.637-29.646H366.63c16.344 0 29.655 13.302 29.655 29.646v264.711zm36.003-109.669a4.319 4.319 0 01-4.314 4.311h-13.688V284.52h13.688a4.321 4.321 0 014.314 4.314v45.376z"/><path fill="#B3DBFF" d="M160.847 129.749c7.335-12.797 11.223-27.145 11.223-41.48 0-15.849 15.39-28.737 34.315-28.737h91.8c18.923 0 34.312 12.897 34.312 28.737 0 14.345 3.894 28.692 11.23 41.48l1.01 1.774H159.821l1.026-1.774zm182.881 363.544c-7.337 12.797-11.23 27.145-11.23 41.482 0 15.847-15.389 28.733-34.312 28.733h-91.81c-18.925 0-34.315-12.895-34.315-28.733 0-14.349-3.888-28.695-11.223-41.482l-1.016-1.773h184.926l-1.02 1.773z"/><path d="M144.287 230.521a8.978 8.978 0 006.363-2.636l35.997-36.001a8.983 8.983 0 000-12.723 8.983 8.983 0 00-12.723 0l-35.999 35.999a8.988 8.988 0 000 12.726 8.976 8.976 0 006.362 2.635zm0 45c2.304 0 4.608-.88 6.363-2.637l18-18.001a8.988 8.988 0 000-12.724 8.986 8.986 0 00-12.726 0l-17.999 17.997a8.99 8.99 0 000 12.728 8.961 8.961 0 006.362 2.637zm29.61-51.391c-1.637 1.703-2.609 3.953-2.609 6.391 0 2.431.98 4.681 2.609 6.301 1.701 1.709 3.951 2.699 6.39 2.699 2.428 0 4.681-.989 6.388-2.61 1.611-1.708 2.61-4.049 2.61-6.389 0-2.339-.99-4.688-2.61-6.391-3.417-3.329-9.448-3.329-12.778-.001zm18.018-5.245c1.766 1.755 4.058 2.635 6.372 2.635s4.606-.88 6.362-2.635l27.001-27.001a8.99 8.99 0 000-12.723 8.989 8.989 0 00-12.728 0l-26.998 26.998a8.994 8.994 0 00-.009 12.726zm26.999 5.275l-80.999 80.999a8.986 8.986 0 000 12.723 9.003 9.003 0 0012.735 0l81-80.997a8.992 8.992 0 000-12.725c-3.518-3.52-9.207-3.52-12.736 0zm18.065-18.027c-1.723 1.619-2.694 3.95-2.694 6.389 0 2.428.981 4.68 2.61 6.389 1.703 1.619 4.052 2.609 6.391 2.609 2.342 0 4.68-.99 6.388-2.609 1.611-1.709 2.611-4.049 2.611-6.389 0-2.341-.989-4.69-2.611-6.389-3.415-3.332-9.449-3.332-12.695 0zm26.934-26.973l-8.998 8.998a8.99 8.99 0 000 12.727 8.99 8.99 0 006.373 2.638 8.96 8.96 0 006.361-2.638l9.001-9.001a8.988 8.988 0 000-12.723 8.999 8.999 0 00-12.737-.001z" fill="#54A0FF"/></svg>